<svg xmlns="http://www.w3.org/2000/svg" width="512" height="512" viewBox="0 0 512 512" role="img" aria-labelledby="title desc">
  <title id="title">pySTAMPS logo</title>
  <desc id="desc">A pySTAMPS mark combining radar phase waves, patch tiles, and a persistent-scatterer point.</desc>
  <defs>
    <linearGradient id="frame" x1="64" y1="48" x2="448" y2="464" gradientUnits="userSpaceOnUse">
      <stop offset="0" stop-color="#111827"/>
      <stop offset="1" stop-color="#0f4f64"/>
    </linearGradient>
    <linearGradient id="wave" x1="116" y1="168" x2="396" y2="344" gradientUnits="userSpaceOnUse">
      <stop offset="0" stop-color="#37d7c4"/>
      <stop offset="0.55" stop-color="#6ea8ff"/>
      <stop offset="1" stop-color="#f0a33a"/>
    </linearGradient>
  </defs>
  <rect x="32" y="32" width="448" height="448" rx="84" fill="url(#frame)"/>
  <rect x="72" y="76" width="368" height="360" rx="48" fill="none" stroke="#ffffff" stroke-opacity="0.16" stroke-width="12"/>
  <g fill="#ffffff" opacity="0.10">
    <rect x="112" y="112" width="64" height="64" rx="14"/>
    <rect x="196" y="112" width="64" height="64" rx="14"/>
    <rect x="280" y="112" width="64" height="64" rx="14"/>
    <rect x="112" y="196" width="64" height="64" rx="14"/>
    <rect x="280" y="196" width="64" height="64" rx="14"/>
  </g>
  <path d="M112 324c34-54 82-82 144-82s110 28 144 82" fill="none" stroke="url(#wave)" stroke-width="22" stroke-linecap="round"/>
  <path d="M146 366c27-36 64-54 110-54s83 18 110 54" fill="none" stroke="#f8fbff" stroke-opacity="0.82" stroke-width="15" stroke-linecap="round"/>
  <path d="M170 226l86-50 86 50" fill="none" stroke="#f8fbff" stroke-width="14" stroke-linecap="round" stroke-linejoin="round"/>
  <path d="M170 226v68l86 50 86-50v-68" fill="none" stroke="#f8fbff" stroke-opacity="0.86" stroke-width="14" stroke-linecap="round" stroke-linejoin="round"/>
  <circle cx="256" cy="176" r="29" fill="#37d7c4"/>
  <circle cx="256" cy="176" r="10" fill="#111827"/>
</svg>
